<svg width="55" height="54" viewBox="0 0 55 54" fill="none" xmlns="http://www.w3.org/2000/svg">
<circle cx="27.4102" cy="27" r="26" stroke="#414141" stroke-width="2"/>
<path d="M27.7216 15.3813C24.5487 15.3813 24.1505 15.3952 22.9043 15.4519C21.6606 15.5088 20.8116 15.7057 20.0687 15.9947C19.3003 16.2931 18.6485 16.6923 17.9991 17.3419C17.3493 17.9913 16.9501 18.6431 16.6507 19.4113C16.3611 20.1544 16.1639 21.0037 16.1079 22.247C16.0522 23.4932 16.0376 23.8917 16.0376 27.0647C16.0376 30.2377 16.0517 30.6347 16.1082 31.8809C16.1654 33.1247 16.3623 33.9737 16.651 34.7166C16.9496 35.485 17.3488 36.1369 17.9984 36.7863C18.6475 37.4362 19.2994 37.8363 20.0673 38.1347C20.8106 38.4237 21.6598 38.6206 22.9033 38.6775C24.1495 38.7342 24.5475 38.7481 27.7202 38.7481C30.8933 38.7481 31.2903 38.7342 32.5365 38.6775C33.7803 38.6206 34.6302 38.4237 35.3735 38.1347C36.1417 37.8363 36.7926 37.4362 37.4417 36.7863C38.0916 36.1369 38.4907 35.485 38.7901 34.7168C39.0773 33.9737 39.2745 33.1245 39.3329 31.8812C39.3889 30.635 39.4035 30.2377 39.4035 27.0647C39.4035 23.8917 39.3889 23.4935 39.3329 22.2472C39.2745 21.0034 39.0773 20.1544 38.7901 19.4116C38.4907 18.6431 38.0916 17.9913 37.4417 17.3419C36.7918 16.692 36.142 16.2928 35.3728 15.9947C34.628 15.7057 33.7786 15.5088 32.5348 15.4519C31.2886 15.3952 30.8919 15.3813 27.718 15.3813H27.7216ZM26.6736 17.4867C26.9846 17.4862 27.3317 17.4867 27.7216 17.4867C30.841 17.4867 31.2107 17.4979 32.4426 17.5539C33.5817 17.606 34.1999 17.7963 34.6117 17.9563C35.1569 18.168 35.5456 18.4212 35.9543 18.8301C36.3632 19.239 36.6163 19.6284 36.8286 20.1737C36.9885 20.585 37.1791 21.2033 37.2309 22.3424C37.2869 23.574 37.2991 23.944 37.2991 27.062C37.2991 30.18 37.2869 30.55 37.2309 31.7816C37.1788 32.9208 36.9885 33.539 36.8286 33.9504C36.6168 34.4956 36.3632 34.8838 35.9543 35.2925C35.5454 35.7014 35.1572 35.9546 34.6117 36.1663C34.2004 36.327 33.5817 36.5168 32.4426 36.5689C31.211 36.6249 30.841 36.6371 27.7216 36.6371C24.602 36.6371 24.2323 36.6249 23.0007 36.5689C21.8616 36.5163 21.2434 36.326 20.8313 36.1661C20.2861 35.9543 19.8967 35.7012 19.4878 35.2923C19.0788 34.8833 18.8257 34.4949 18.6135 33.9494C18.4536 33.538 18.263 32.9198 18.2111 31.7807C18.1552 30.549 18.144 30.1791 18.144 27.0591C18.144 23.9391 18.1552 23.5711 18.2111 22.3395C18.2632 21.2004 18.4536 20.5821 18.6135 20.1703C18.8252 19.625 19.0788 19.2356 19.4878 18.8267C19.8967 18.4178 20.2861 18.1646 20.8313 17.9524C21.2431 17.7917 21.8616 17.6019 23.0007 17.5495C24.0785 17.5009 24.4961 17.4862 26.6736 17.4838V17.4867ZM33.958 19.4267C33.1839 19.4267 32.556 20.0539 32.556 20.8282C32.556 21.6022 33.1839 22.2302 33.958 22.2302C34.732 22.2302 35.3599 21.6022 35.3599 20.8282C35.3599 20.0542 34.732 19.4262 33.958 19.4262V19.4267ZM27.7216 21.0648C24.4083 21.0648 21.7219 23.7512 21.7219 27.0647C21.7219 30.3782 24.4083 33.0634 27.7216 33.0634C31.035 33.0634 33.7204 30.3782 33.7204 27.0647C33.7204 23.7512 31.0348 21.0648 27.7214 21.0648H27.7216ZM27.7216 23.1702C29.8723 23.1702 31.616 24.9137 31.616 27.0647C31.616 29.2154 29.8723 30.9592 27.7216 30.9592C25.5707 30.9592 23.8273 29.2154 23.8273 27.0647C23.8273 24.9137 25.5707 23.1702 27.7216 23.1702Z" fill="#414141"/>
</svg>
