<svg width="20" height="20" viewBox="0 0 20 20" fill="none" xmlns="http://www.w3.org/2000/svg">
<path d="M14.45 4.55C14.2522 4.55 14.0589 4.60865 13.8944 4.71854C13.73 4.82842 13.6018 4.9846 13.5261 5.16732C13.4504 5.35005 13.4306 5.55111 13.4692 5.7451C13.5078 5.93908 13.603 6.11726 13.7429 6.25711C13.8827 6.39696 14.0609 6.49221 14.2549 6.53079C14.4489 6.56938 14.6499 6.54957 14.8327 6.47388C15.0154 6.3982 15.1716 6.27002 15.2815 6.10558C15.3913 5.94113 15.45 5.74779 15.45 5.55C15.45 5.28479 15.3446 5.03043 15.1571 4.8429C14.9696 4.65536 14.7152 4.55 14.45 4.55ZM18.2833 6.56667C18.267 5.87527 18.1375 5.19121 17.9 4.54167C17.6891 3.98546 17.3591 3.48206 16.9333 3.06667C16.5207 2.63953 16.0163 2.31182 15.4583 2.10834C14.8105 1.86347 14.1257 1.73101 13.4333 1.71667C12.55 1.66667 12.2667 1.66667 9.99999 1.66667C7.73332 1.66667 7.44999 1.66667 6.56666 1.71667C5.87428 1.73101 5.18944 1.86347 4.54166 2.10834C3.98497 2.31438 3.48113 2.64174 3.06666 3.06667C2.63951 3.47932 2.3118 3.9837 2.10832 4.54167C1.86346 5.18946 1.731 5.8743 1.71666 6.56667C1.66666 7.45001 1.66666 7.73334 1.66666 10C1.66666 12.2667 1.66666 12.55 1.71666 13.4333C1.731 14.1257 1.86346 14.8106 2.10832 15.4583C2.3118 16.0163 2.63951 16.5207 3.06666 16.9333C3.48113 17.3583 3.98497 17.6856 4.54166 17.8917C5.18944 18.1365 5.87428 18.269 6.56666 18.2833C7.44999 18.3333 7.73332 18.3333 9.99999 18.3333C12.2667 18.3333 12.55 18.3333 13.4333 18.2833C14.1257 18.269 14.8105 18.1365 15.4583 17.8917C16.0163 17.6882 16.5207 17.3605 16.9333 16.9333C17.3602 16.5188 17.6903 16.0152 17.9 15.4583C18.1375 14.8088 18.267 14.1247 18.2833 13.4333C18.2833 12.55 18.3333 12.2667 18.3333 10C18.3333 7.73334 18.3333 7.45001 18.2833 6.56667ZM16.7833 13.3333C16.7774 13.8623 16.6816 14.3865 16.5 14.8833C16.3669 15.246 16.1532 15.5737 15.875 15.8417C15.6045 16.1169 15.2776 16.3301 14.9167 16.4667C14.4198 16.6483 13.8956 16.7441 13.3667 16.75C12.5333 16.7917 12.225 16.8 10.0333 16.8C7.84166 16.8 7.53332 16.8 6.69999 16.75C6.1507 16.7608 5.6037 16.6762 5.08332 16.5C4.73848 16.3561 4.42658 16.1435 4.16666 15.875C3.89006 15.6073 3.67903 15.2793 3.54999 14.9167C3.34586 14.4128 3.23299 13.8767 3.21666 13.3333C3.21666 12.5 3.16666 12.1917 3.16666 10C3.16666 7.80834 3.16666 7.5 3.21666 6.66667C3.2197 6.12582 3.31844 5.58977 3.50832 5.08334C3.65503 4.7316 3.88021 4.41805 4.16666 4.16667C4.41909 3.87933 4.73218 3.65163 5.08332 3.5C5.59116 3.31624 6.12661 3.22042 6.66666 3.21667C7.49999 3.21667 7.80832 3.16667 9.99999 3.16667C12.1917 3.16667 12.5 3.16667 13.3333 3.21667C13.8623 3.22258 14.3865 3.31839 14.8833 3.5C15.262 3.64055 15.6019 3.86904 15.875 4.16667C16.1473 4.42336 16.3605 4.73612 16.5 5.08334C16.6854 5.59074 16.7812 6.12647 16.7833 6.66667C16.825 7.5 16.8333 7.80834 16.8333 10C16.8333 12.1917 16.825 12.5 16.7833 13.3333ZM9.99999 5.725C9.15483 5.72665 8.32912 5.97878 7.6272 6.44952C6.92528 6.92026 6.37864 7.5885 6.05635 8.3698C5.73406 9.1511 5.65059 10.0104 5.81648 10.8391C5.98238 11.6678 6.39019 12.4288 6.98839 13.0258C7.58659 13.6229 8.34833 14.0292 9.17737 14.1935C10.0064 14.3577 10.8655 14.2726 11.6462 13.9488C12.4269 13.625 13.0941 13.077 13.5634 12.3742C14.0328 11.6714 14.2833 10.8452 14.2833 10C14.2844 9.43759 14.1743 8.88051 13.9594 8.3608C13.7444 7.84109 13.4288 7.36901 13.0307 6.97171C12.6326 6.57441 12.1599 6.25974 11.6398 6.04578C11.1197 5.83182 10.5624 5.72281 9.99999 5.725ZM9.99999 12.775C9.45115 12.775 8.91463 12.6123 8.45828 12.3073C8.00194 12.0024 7.64626 11.569 7.43622 11.062C7.22619 10.5549 7.17124 9.99693 7.27831 9.45863C7.38538 8.92033 7.64968 8.42587 8.03777 8.03778C8.42586 7.64969 8.92032 7.3854 9.45861 7.27833C9.99691 7.17125 10.5549 7.22621 11.0619 7.43624C11.569 7.64627 12.0024 8.00195 12.3073 8.4583C12.6122 8.91464 12.775 9.45116 12.775 10C12.775 10.3644 12.7032 10.7253 12.5638 11.062C12.4243 11.3986 12.2199 11.7045 11.9622 11.9622C11.7045 12.2199 11.3986 12.4243 11.0619 12.5638C10.7253 12.7032 10.3644 12.775 9.99999 12.775Z" fill="black"/>
</svg>
