<svg width="24" height="24" viewBox="0 0 24 24" fill="none" xmlns="http://www.w3.org/2000/svg">
<path d="M13.2965 6.5L17.2107 10.5M4 20H7.9143L18.1893 9.5C18.4463 9.23735 18.6502 8.92555 18.7893 8.58239C18.9284 8.23923 19 7.87143 19 7.5C19 7.12856 18.9284 6.76077 18.7893 6.4176C18.6502 6.07444 18.4463 5.76264 18.1893 5.5C17.9323 5.23735 17.6272 5.02901 17.2914 4.88687C16.9556 4.74473 16.5957 4.67157 16.2322 4.67157C15.8687 4.67157 15.5088 4.74473 15.173 4.88687C14.8372 5.02901 14.532 5.23735 14.275 5.5L4 16V20Z" stroke="#848484" stroke-width="2" stroke-linecap="round" stroke-linejoin="round"/>
</svg>
