<svg width="54" height="54" viewBox="0 0 54 54" fill="none" xmlns="http://www.w3.org/2000/svg">
<circle cx="27" cy="27" r="26" stroke="#414141" stroke-width="2"/>
<path fill-rule="evenodd" clip-rule="evenodd" d="M37.4688 21.8286C37.4778 22.0627 37.4809 22.2968 37.4809 22.5309C37.4809 29.6291 32.4876 37.8235 23.3568 37.8235C20.5519 37.8235 17.9438 36.9296 15.7463 35.4078C16.1348 35.4503 16.5293 35.4823 16.9298 35.4823C19.2554 35.4823 21.3974 34.6201 23.0965 33.1728C20.9242 33.1409 19.09 31.5765 18.4574 29.4482C18.7611 29.512 19.0738 29.544 19.3936 29.544C19.8446 29.544 20.2825 29.4802 20.7022 29.3525C18.4291 28.863 16.7169 26.6921 16.7169 24.0848C16.7169 24.0529 16.7169 24.0422 16.7169 24.0209C17.3869 24.4147 18.1537 24.6593 18.9679 24.6912C17.6341 23.7228 16.7573 22.0733 16.7573 20.211C16.7573 19.2319 17.0014 18.3061 17.4312 17.5079C19.8789 20.7643 23.5384 22.9034 27.6639 23.1269C27.5792 22.7331 27.5358 22.3182 27.5358 21.9032C27.5358 18.9341 29.7585 16.5289 32.5007 16.5289C33.9284 16.5289 35.2178 17.1782 36.1228 18.2211C37.2559 17.987 38.3173 17.54 39.2778 16.9228C38.9055 18.1786 38.1195 19.2319 37.0924 19.8917C38.0973 19.764 39.0558 19.4769 39.9447 19.0512C39.2778 20.126 38.4384 21.073 37.4688 21.8286Z" fill="#414141"/>
</svg>
